<?xml version="1.0" standalone="no"?>
<!DOCTYPE svg PUBLIC "-//W3C//DTD SVG 20010904//EN"
 "http://www.w3.org/TR/2001/REC-SVG-20010904/DTD/svg10.dtd">
<svg version="1.0" xmlns="http://www.w3.org/2000/svg"
 width="200.000000pt" height="200.000000pt" viewBox="0 0 200.000000 200.000000"
 preserveAspectRatio="xMidYMid meet">
<metadata>
Created by potrace 1.11, written by Peter Selinger 2001-2013
</metadata>
<g transform="translate(0.000000,200.000000) scale(0.100000,-0.100000)"
fill="#000000" stroke="none">
<path d="M133 1487 c-51 -19 -93 -57 -114 -104 -19 -42 -20 -63 -17 -396 l3
-352 27 -41 c15 -23 44 -52 65 -65 36 -23 49 -24 221 -27 l182 -4 0 501 0 501
-167 -1 c-104 0 -180 -5 -200 -12z"/>
<path d="M600 1000 l0 -500 400 0 400 0 0 500 0 500 -400 0 -400 0 0 -500z
m305 200 c36 -40 13 -112 -40 -123 -68 -12 -114 73 -68 125 27 30 80 29 108
-2z m301 -1 c22 -25 20 -77 -4 -101 -45 -46 -126 -11 -124 52 2 70 81 100 128
49z m-310 -294 c54 -43 22 -129 -47 -127 -50 1 -74 34 -70 95 1 18 51 54 75
54 8 0 27 -10 42 -22z m300 0 c55 -36 21 -129 -46 -127 -41 1 -67 24 -73 65
-3 25 2 37 23 59 30 30 55 30 96 3z"/>
<path d="M1500 1000 l0 -500 163 0 c180 0 218 7 263 47 71 65 69 52 72 428 2
243 0 352 -9 383 -15 54 -76 117 -126 131 -21 6 -111 11 -200 11 l-163 0 0
-500z"/>
</g>
</svg>
